<svg width="118" height="24" viewBox="0 0 118 24" fill="none" xmlns="http://www.w3.org/2000/svg">
<path d="M46.9332 10.3578H31.8016V7.89397H46.9332V10.3578ZM39.3832 3.1582V19.8947C39.3832 20.1891 39.3938 20.4151 39.415 20.5742C39.4362 20.7318 39.4952 20.8582 39.592 20.9534C39.6888 21.0485 39.8174 21.1065 39.9777 21.1273C40.1381 21.1482 40.3468 21.1586 40.604 21.1586H46.9332V23.6848H41.3755C39.8113 23.6848 38.6602 23.2952 37.922 22.5161C37.1838 21.737 36.8132 20.4954 36.8132 18.7899V3.1582H39.3832Z" fill="#202527"/>
<path d="M61.6805 16.042C60.9514 16.0851 60.3251 16.1208 59.8017 16.1521C59.2768 16.1833 58.7141 16.2205 58.1151 16.2621C57.5145 16.3052 56.979 16.3468 56.5086 16.3885C55.8233 16.4301 55.1759 16.4985 54.5648 16.5937C53.9536 16.6888 53.4136 16.8464 52.9416 17.068C52.4697 17.2895 52.1006 17.5735 51.8328 17.92C51.5651 18.2679 51.4319 18.7051 51.4319 19.2299C51.4319 20.1979 51.7254 20.867 52.3154 21.2358C52.9038 21.6045 53.7449 21.7889 54.837 21.7889C55.9943 21.7889 56.9306 21.6268 57.6476 21.2997C58.3647 20.9741 58.9168 20.5533 59.3025 20.0358C59.6883 19.5199 59.956 18.9459 60.1058 18.314C60.2556 17.6821 60.3312 17.0501 60.3312 16.4197C60.5672 16.3989 60.7593 16.3885 60.909 16.3885H61.5519C61.5519 17.3148 61.4445 18.2307 61.2312 19.1363C61.0164 20.0418 60.6201 20.8581 60.0423 21.5837C59.4644 22.3093 58.6718 22.8936 57.6643 23.3367C56.6568 23.7784 55.362 23.9999 53.7766 23.9999C52.1913 23.9999 50.9222 23.5628 50.0977 22.6899C49.2733 21.8171 48.8604 20.6633 48.8604 19.2314C48.8604 18.2843 49.0736 17.4947 49.5033 16.8628C49.9313 16.2309 50.5047 15.7253 51.2217 15.3476C51.9387 14.9685 52.7525 14.6904 53.6632 14.5105C54.5738 14.3321 55.4996 14.2206 56.442 14.1789C57.0199 14.1373 57.6098 14.0957 58.2089 14.0526C58.8079 14.0109 59.3767 13.9797 59.9122 13.9574C60.5112 13.9158 61.1012 13.8741 61.679 13.831V16.042H61.6805ZM59.3025 11.0996C58.6173 10.4364 57.6325 10.1049 56.3467 10.1049C55.8112 10.1049 55.2909 10.1837 54.7886 10.3413C54.2849 10.4989 53.8417 10.7249 53.4559 11.0208C53.0702 11.3152 52.7601 11.6631 52.5241 12.0631C52.2881 12.4631 52.1701 12.927 52.1701 13.4519H49.6001C49.6001 12.7783 49.7498 12.0943 50.0493 11.3985C50.3489 10.7041 50.783 10.0721 51.3503 9.50414C51.9175 8.93615 52.63 8.47224 53.4862 8.11538C54.3424 7.75704 55.3287 7.57861 56.442 7.57861C57.5554 7.57861 58.5462 7.74663 59.3494 8.08416C60.1527 8.42168 60.8168 8.89006 61.3417 9.48928C61.8666 10.09 62.2569 10.8111 62.514 11.6527C62.7712 12.4943 62.8998 13.4206 62.8998 14.4317V21.1584H63.9284V23.6847H62.9966C62.3749 23.6847 61.8878 23.6163 61.5353 23.4795C61.1813 23.3427 60.9136 23.1271 60.7321 22.8327C60.5505 22.5383 60.4371 22.1695 60.3947 21.7279C60.3509 21.2863 60.3297 20.7495 60.3297 20.1176V13.9589C60.3297 12.7173 59.9863 11.7642 59.301 11.1011L59.3025 11.0996Z" fill="#202527"/>
<path d="M73.8245 22.5472V4.42045C73.8245 4.12604 73.8139 3.90003 73.7927 3.74094C73.7716 3.58333 73.7171 3.45694 73.6324 3.36178C73.5462 3.26662 73.4282 3.20863 73.2784 3.18781C73.1287 3.167 72.9139 3.15659 72.6355 3.15659H66.8842V0.631836H71.8323C73.3949 0.631836 74.5476 1.0214 75.2858 1.80054C76.024 2.57967 76.3946 3.82123 76.3946 5.5267V22.5487H73.8245V22.5472ZM67.5604 21.2209H82.6602V23.6847H67.5604V21.2209Z" fill="#202527"/>
<path d="M84.6191 0H87.1892V23.6848H84.6191V0ZM85.6478 20.5905V17.1796L96.5392 7.89542H100.362L85.6478 20.5905ZM97.695 23.6848L90.6594 15.1589L92.5866 13.4847L101.005 23.6848H97.695Z" fill="#202527"/>
<path d="M115.991 21.8216C114.652 23.2743 112.805 23.9999 110.449 23.9999C108.092 23.9999 106.277 23.2743 104.939 21.8216C103.601 20.3689 102.932 18.3586 102.932 15.7893C102.932 13.2199 103.601 11.2364 104.939 9.77327C106.278 8.31017 108.114 7.57861 110.449 7.57861C112.783 7.57861 114.652 8.31017 115.991 9.77327C117.33 11.2364 117.998 13.2422 117.998 15.7893C117.998 18.3363 117.328 20.3689 115.991 21.8216ZM114.224 11.3211C113.4 10.3219 112.141 9.82085 110.449 9.82085C108.756 9.82085 107.558 10.3264 106.721 11.3375C105.886 12.3486 105.469 13.8325 105.469 15.7907C105.469 17.749 105.886 19.2597 106.721 20.2589C107.556 21.2596 108.798 21.7591 110.449 21.7591C112.099 21.7591 113.398 21.2596 114.224 20.2589C115.049 19.2597 115.462 17.7698 115.462 15.7907C115.462 13.8117 115.049 12.3218 114.224 11.3226V11.3211Z" fill="#202527"/>
<path d="M14.1967 0.187484L12.1833 0.0239258L11.61 7.29782C11.545 7.31567 11.4814 7.33648 11.4194 7.3573L9.21388 0.383755L7.58319 0.908629L10.1276 8.00707C10.0186 8.08291 9.91275 8.1632 9.8114 8.24795L4.69846 2.55165L3.5836 3.51813L8.89924 9.23674C8.84327 9.31703 8.78881 9.4003 8.73738 9.48356L1.46732 6.29863L0.880394 7.52681L8.23062 10.6314C8.18827 10.7742 8.15196 10.9199 8.12322 11.0686H0V12.3027H6.84801L0.396328 15.0401L1.58229 17.9068L6.59539 15.6482L2.78489 19.6197L4.69997 21.4501L8.335 17.7715L7.0734 22.8746L9.59357 23.7042L11.2409 18.2429L11.908 23.9763L14.6203 23.737L14.5099 23.4649L13.9865 17.5069L17.1344 22.9459L19.4156 21.6389L15.9378 15.9709C15.9484 15.9635 15.9605 15.956 15.9711 15.9486L21.3609 19.877L22.742 17.9812L17.5186 14.1078C17.5247 14.0944 17.5307 14.081 17.5368 14.0692L23.9053 15.2765L24.3092 13.1726L18.0027 12.0039V12.0009C18.0027 11.8477 17.9951 11.6961 17.98 11.5459L24.229 10.1884L23.754 8.23903L17.4339 9.72741C17.3416 9.55493 17.2403 9.38989 17.1299 9.23079L22.4198 5.50314L21.2036 3.94933L15.8804 7.98923C15.723 7.88069 15.5597 7.77958 15.3887 7.68888L18.8074 1.94797L17.1541 1.06327L13.8201 7.164C13.7066 7.14616 13.5932 7.13129 13.4767 7.12088L14.1967 0.187484Z" fill="#F96D5D"/>
</svg>
