<svg width="118" height="24" viewBox="0 0 118 24" fill="none" xmlns="http://www.w3.org/2000/svg">
<g clip-path="url(#clip0_910_434)">
<path d="M46.9333 10.3578H31.8018V7.89397H46.9333V10.3578ZM39.3834 3.1582V19.8947C39.3834 20.1891 39.394 20.4151 39.4152 20.5742C39.4364 20.7318 39.4954 20.8582 39.5922 20.9534C39.689 21.0485 39.8176 21.1065 39.9779 21.1273C40.1383 21.1482 40.347 21.1586 40.6042 21.1586H46.9333V23.6848H41.3757C39.8115 23.6848 38.6604 23.2952 37.9222 22.5161C37.184 21.737 36.8133 20.4954 36.8133 18.7899V3.1582H39.3834Z" fill="white"/>
<path d="M61.6805 16.0425C60.9514 16.0856 60.3251 16.1213 59.8017 16.1525C59.2768 16.1838 58.7141 16.2209 58.1151 16.2626C57.5145 16.3057 56.979 16.3473 56.5086 16.389C55.8233 16.4306 55.1759 16.499 54.5648 16.5942C53.9536 16.6893 53.4136 16.8469 52.9416 17.0685C52.4697 17.29 52.1006 17.574 51.8328 17.9205C51.5651 18.2684 51.4319 18.7056 51.4319 19.2304C51.4319 20.1984 51.7254 20.8675 52.3154 21.2362C52.9038 21.605 53.7449 21.7894 54.837 21.7894C55.9943 21.7894 56.9306 21.6273 57.6476 21.3002C58.3647 20.9746 58.9168 20.5538 59.3025 20.0363C59.6883 19.5204 59.956 18.9464 60.1058 18.3145C60.2556 17.6826 60.3312 17.0506 60.3312 16.4202C60.5672 16.3994 60.7593 16.389 60.909 16.389H61.5519C61.5519 17.3153 61.4445 18.2312 61.2312 19.1367C61.0164 20.0423 60.6201 20.8586 60.0423 21.5842C59.4644 22.3098 58.6718 22.8941 57.6643 23.3372C56.6568 23.7788 55.362 24.0004 53.7766 24.0004C52.1913 24.0004 50.9222 23.5632 50.0977 22.6904C49.2733 21.8176 48.8604 20.6638 48.8604 19.2319C48.8604 18.2848 49.0736 17.4952 49.5033 16.8633C49.9313 16.2314 50.5047 15.7258 51.2217 15.3481C51.9387 14.969 52.7525 14.6909 53.6632 14.511C54.5738 14.3326 55.4996 14.2211 56.442 14.1794C57.0199 14.1378 57.6098 14.0962 58.2089 14.0531C58.8079 14.0114 59.3767 13.9802 59.9122 13.9579C60.5112 13.9163 61.1012 13.8746 61.679 13.8315V16.0425H61.6805ZM59.3025 11.1001C58.6173 10.4369 57.6325 10.1053 56.3467 10.1053C55.8112 10.1053 55.2909 10.1841 54.7886 10.3418C54.2849 10.4994 53.8417 10.7254 53.4559 11.0213C53.0702 11.3157 52.7601 11.6636 52.5241 12.0636C52.2881 12.4636 52.1701 12.9275 52.1701 13.4523H49.6001C49.6001 12.7788 49.7498 12.0948 50.0493 11.3989C50.3489 10.7046 50.783 10.0726 51.3503 9.50463C51.9175 8.93664 52.63 8.47273 53.4862 8.11587C54.3424 7.75753 55.3287 7.5791 56.442 7.5791C57.5554 7.5791 58.5462 7.74712 59.3494 8.08465C60.1527 8.42217 60.8168 8.89054 61.3417 9.48976C61.8666 10.0905 62.2569 10.8116 62.514 11.6532C62.7712 12.4948 62.8998 13.4211 62.8998 14.4322V21.1589H63.9284V23.6852H62.9966C62.3749 23.6852 61.8878 23.6168 61.5353 23.48C61.1813 23.3432 60.9136 23.1276 60.7321 22.8332C60.5505 22.5388 60.4371 22.17 60.3947 21.7284C60.3509 21.2868 60.3297 20.75 60.3297 20.1181V13.9594C60.3297 12.7178 59.9863 11.7647 59.301 11.1016L59.3025 11.1001Z" fill="white"/>
<path d="M73.8251 22.5473V4.42057C73.8251 4.12617 73.8145 3.90016 73.7933 3.74106C73.7721 3.58345 73.7177 3.45706 73.6329 3.3619C73.5467 3.26674 73.4287 3.20875 73.279 3.18793C73.1292 3.16712 72.9144 3.15671 72.6361 3.15671H66.8848V0.631958H71.8328C73.3954 0.631958 74.5481 1.02152 75.2863 1.80066C76.0245 2.57979 76.3951 3.82135 76.3951 5.52682V22.5488H73.8251V22.5473ZM67.5609 21.221H82.6608V23.6848H67.5609V21.221Z" fill="white"/>
<path d="M84.6191 0H87.1892V23.6848H84.6191V0ZM85.6478 20.5905V17.1796L96.5392 7.89542H100.362L85.6478 20.5905ZM97.695 23.6848L90.6594 15.1589L92.5866 13.4847L101.005 23.6848H97.695Z" fill="white"/>
<path d="M115.991 21.8221C114.652 23.2748 112.805 24.0004 110.448 24.0004C108.091 24.0004 106.276 23.2748 104.939 21.8221C103.6 20.3694 102.932 18.3591 102.932 15.7897C102.932 13.2204 103.6 11.2369 104.939 9.77376C106.278 8.31066 108.114 7.5791 110.448 7.5791C112.782 7.5791 114.652 8.31066 115.991 9.77376C117.33 11.2369 117.998 13.2427 117.998 15.7897C117.998 18.3368 117.328 20.3694 115.991 21.8221ZM114.224 11.3216C113.4 10.3224 112.141 9.82134 110.448 9.82134C108.756 9.82134 107.557 10.3269 106.721 11.338C105.886 12.3491 105.468 13.833 105.468 15.7912C105.468 17.7495 105.886 19.2602 106.721 20.2594C107.556 21.26 108.798 21.7596 110.448 21.7596C112.099 21.7596 113.398 21.26 114.224 20.2594C115.048 19.2602 115.461 17.7703 115.461 15.7912C115.461 13.8122 115.048 12.3223 114.224 11.3231V11.3216Z" fill="white"/>
<path d="M14.1967 0.186996L12.1833 0.0234375L11.61 7.29734C11.545 7.31518 11.4814 7.336 11.4194 7.35681L9.21388 0.383266L7.58319 0.908141L10.1276 8.00659C10.0186 8.08242 9.91275 8.16271 9.8114 8.24746L4.69846 2.55116L3.5836 3.51764L8.89924 9.23625C8.84327 9.31654 8.78881 9.39981 8.73738 9.48307L1.46732 6.29814L0.880394 7.52632L8.23062 10.631C8.18827 10.7737 8.15196 10.9194 8.12322 11.0681H0V12.3022H6.84801L0.396328 15.0396L1.58229 17.9063L6.59539 15.6477L2.78489 19.6192L4.69997 21.4496L8.335 17.771L7.0734 22.8741L9.59357 23.7038L11.2409 18.2424L11.908 23.9759L14.6203 23.7365L14.5099 23.4644L13.9865 17.5064L17.1344 22.9454L19.4156 21.6385L15.9378 15.9704C15.9484 15.963 15.9605 15.9555 15.9711 15.9481L21.3609 19.8765L22.742 17.9807L17.5186 14.1073C17.5247 14.0939 17.5307 14.0806 17.5368 14.0687L23.9053 15.276L24.3092 13.1721L18.0027 12.0034V12.0004C18.0027 11.8472 17.9951 11.6956 17.98 11.5454L24.229 10.1879L23.754 8.23854L17.4339 9.72692C17.3416 9.55445 17.2403 9.3894 17.1299 9.2303L22.4198 5.50265L21.2036 3.94884L15.8804 7.98874C15.723 7.8802 15.5597 7.77909 15.3887 7.68839L18.8074 1.94748L17.1541 1.06278L13.8201 7.16352C13.7066 7.14567 13.5932 7.1308 13.4767 7.1204L14.1967 0.186996Z" fill="#F96D5D"/>
</g>
<defs>
<clipPath id="clip0_910_434">
<rect width="118" height="24" fill="white"/>
</clipPath>
</defs>
</svg>
